# xmcd CD database file
#
# Track frame offsets:
#	182
#	17760
#	39535
#	60775
#	79740
#	98977
#	116042
#	143202
#	162992
#	184967
#
# Disc length: 2656 seconds
#
# Revision: 2
# Processed by: cddbd v1.4PL0 Copyright (c) Steve Scherf et al.
# Submitted via: CDex 1.51
#
DISCID=7f0a5e0a
DTITLE=Michael James - Where Love Runs Deep
DYEAR=1995
DGENRE=Country
TTITLE0=I Hear A Call
TTITLE1=One Of These Days
TTITLE2=Love Waits
TTITLE3=Where Love Runs Deep
TTITLE4=Above All Else
TTITLE5=In The Midst Of Your Love
TTITLE6=The Power Of Forgiveness
TTITLE7=A Promise To Keep
TTITLE8=With Every Turn Of The World
TTITLE9=My Heart Knows It's Way Home
EXTD=YEAR: 1995
EXTT0=
EXTT1=
EXTT2=
EXTT3=
EXTT4=
EXTT5=
EXTT6=
EXTT7=
EXTT8=
EXTT9=
PLAYORDER=
